<svg width="16" height="16" viewBox="0 0 16 16" fill="none" xmlns="http://www.w3.org/2000/svg">
<path d="M8.00016 5.50001C7.5057 5.50001 7.02235 5.64663 6.61123 5.92133C6.20011 6.19604 5.87968 6.58648 5.69046 7.0433C5.50124 7.50011 5.45173 8.00278 5.54819 8.48773C5.64466 8.97269 5.88276 9.41814 6.23239 9.76777C6.58202 10.1174 7.02748 10.3555 7.51243 10.452C7.99738 10.5484 8.50005 10.4989 8.95686 10.3097C9.41368 10.1205 9.80413 9.80006 10.0788 9.38893C10.3535 8.97781 10.5002 8.49446 10.5002 8.00001C10.5002 7.33697 10.2368 6.70108 9.76792 6.23224C9.29908 5.7634 8.6632 5.50001 8.00016 5.50001ZM8.00016 9.50001C7.70348 9.50001 7.41347 9.41203 7.1668 9.24721C6.92013 9.08239 6.72787 8.84812 6.61434 8.57403C6.5008 8.29994 6.4711 7.99834 6.52898 7.70737C6.58686 7.4164 6.72972 7.14913 6.9395 6.93935C7.14927 6.72957 7.41655 6.58671 7.70752 6.52883C7.99849 6.47095 8.30009 6.50066 8.57418 6.61419C8.84827 6.72772 9.08254 6.91998 9.24736 7.16665C9.41218 7.41333 9.50016 7.70334 9.50016 8.00001C9.50016 8.39783 9.34212 8.77936 9.06082 9.06067C8.77951 9.34197 8.39798 9.50001 8.00016 9.50001ZM12.607 9.94626C12.3922 10.4541 12.0949 10.9229 11.727 11.3338C11.638 11.4301 11.5146 11.4876 11.3835 11.4938C11.2524 11.5 11.1241 11.4545 11.0264 11.3669C10.9286 11.2794 10.8691 11.157 10.8608 11.026C10.8525 10.895 10.8961 10.766 10.982 10.6669C11.6386 9.93385 12.0016 8.98438 12.0016 8.00032C12.0016 7.01626 11.6386 6.06679 10.982 5.33376C10.937 5.28504 10.9021 5.22786 10.8794 5.16554C10.8567 5.10322 10.8467 5.037 10.8498 4.97074C10.8529 4.90449 10.8692 4.83952 10.8977 4.77962C10.9262 4.71972 10.9663 4.66609 11.0157 4.62185C11.0652 4.57761 11.1229 4.54365 11.1856 4.52194C11.2483 4.50023 11.3146 4.49121 11.3808 4.4954C11.447 4.49959 11.5117 4.51691 11.5712 4.54635C11.6306 4.57579 11.6836 4.61676 11.727 4.66688C12.3584 5.37334 12.7762 6.2445 12.932 7.17906C13.0878 8.11362 12.9751 9.07321 12.607 9.94626ZM4.31266 6.44313C4.01764 7.14149 3.92716 7.9093 4.05176 8.6571C4.17636 9.40491 4.5109 10.1019 5.01641 10.6669C5.10237 10.766 5.1459 10.895 5.1376 11.026C5.12931 11.157 5.06986 11.2794 4.97208 11.3669C4.8743 11.4545 4.74603 11.5 4.61495 11.4938C4.48386 11.4876 4.36047 11.4301 4.27141 11.3338C3.45052 10.4175 2.9966 9.23053 2.9966 8.00032C2.9966 6.77011 3.45052 5.58316 4.27141 4.66688C4.35984 4.56784 4.48399 4.50799 4.61656 4.50048C4.74912 4.49298 4.87924 4.53845 4.97828 4.62688C5.07732 4.71532 5.13718 4.83947 5.14468 4.97204C5.15218 5.1046 5.10671 5.23472 5.01828 5.33376C4.72328 5.66194 4.48483 6.03683 4.31266 6.44313ZM15.5002 8.00001C15.5032 9.96359 14.7333 11.8495 13.357 13.25C13.3115 13.2987 13.2567 13.3378 13.1958 13.365C13.135 13.3922 13.0693 13.4069 13.0026 13.4083C12.936 13.4098 12.8697 13.3979 12.8078 13.3733C12.7458 13.3488 12.6894 13.3121 12.6418 13.2654C12.5942 13.2188 12.5564 13.163 12.5307 13.1016C12.5049 13.0401 12.4917 12.9741 12.4919 12.9074C12.492 12.8407 12.5055 12.7748 12.5315 12.7134C12.5575 12.652 12.5955 12.5965 12.6433 12.55C13.835 11.3359 14.5026 9.70253 14.5026 8.00126C14.5026 6.29998 13.835 4.66666 12.6433 3.45251C12.5501 3.35786 12.4984 3.23008 12.4994 3.09728C12.5005 2.96448 12.5543 2.83754 12.6489 2.74438C12.7436 2.65123 12.8713 2.59948 13.0041 2.60054C13.1369 2.60159 13.2639 2.65536 13.357 2.75001C14.7333 4.15053 15.5032 6.03642 15.5002 8.00001ZM3.35703 12.5488C3.40308 12.5956 3.43944 12.6511 3.46404 12.712C3.48865 12.7729 3.50101 12.8381 3.50043 12.9038C3.49985 12.9695 3.48634 13.0344 3.46066 13.0949C3.43498 13.1554 3.39765 13.2102 3.35078 13.2563C3.30392 13.3023 3.24844 13.3387 3.18752 13.3633C3.1266 13.3879 3.06143 13.4002 2.99574 13.3997C2.93004 13.3991 2.8651 13.3856 2.80462 13.3599C2.74415 13.3342 2.68933 13.2969 2.64328 13.25C1.26715 11.8491 0.496094 9.96378 0.496094 8.00001C0.496094 6.03623 1.26715 4.15096 2.64328 2.75001C2.68881 2.70133 2.74362 2.66224 2.80448 2.63505C2.86534 2.60786 2.93102 2.59311 2.99766 2.59167C3.06431 2.59023 3.13056 2.60213 3.19254 2.62668C3.25451 2.65122 3.31096 2.6879 3.35855 2.73458C3.40614 2.78125 3.44391 2.83697 3.46966 2.89846C3.4954 2.95994 3.50859 3.02595 3.50845 3.09261C3.50831 3.15927 3.49484 3.22523 3.46883 3.2866C3.44283 3.34798 3.40482 3.40354 3.35703 3.45001C2.16532 4.66416 1.49768 6.29748 1.49768 7.99876C1.49768 9.70003 2.16532 11.3334 3.35703 12.5475V12.5488Z" fill="#1C1C1C"/>
</svg>
